<svg width="27" height="20" viewBox="0 0 27 20" fill="none" xmlns="http://www.w3.org/2000/svg">
<g clip-path="url(#clip0_331_402)">
<mask id="mask0_331_402" style="mask-type:luminance" maskUnits="userSpaceOnUse" x="-1" y="0" width="28" height="20">
<path d="M-0.00390625 0H26.9974V20H-0.00390625V0Z" fill="white"/>
</mask>
<g mask="url(#mask0_331_402)">
<path fill-rule="evenodd" clip-rule="evenodd" d="M-1.70508 0H28.7016V20H-1.70508V0Z" fill="#FF0000"/>
<path fill-rule="evenodd" clip-rule="evenodd" d="M7.52935 10.1992C8.06724 9.55078 9.18652 10.1836 10.1001 9.71875C9.01646 9.77734 8.42715 9.20312 7.57285 9.28516C8.45879 8.74609 9.21421 9.46094 10.203 9.17578C8.89385 9.06641 8.94922 8.48438 7.75478 8.40234C8.81475 7.95703 9.33682 8.86328 10.377 8.65625C9.15093 8.37891 8.99272 7.66797 8.08306 7.51562C9.41196 7.32031 9.32495 8.09375 10.6262 8.1875C9.30518 7.62891 9.64927 7.14062 8.5458 6.71484C9.78374 6.6875 9.70068 7.53516 10.9584 7.75391C9.88262 7.08203 10.0131 6.46875 9.13115 5.98828C10.1792 6.00781 10.2781 7.06641 11.35 7.39453C10.3968 6.64844 10.6459 6.01562 9.82329 5.34766C10.8674 5.58984 10.7132 6.50391 11.8008 7.08984C10.994 6.20703 11.3025 5.57422 10.6024 4.85156C11.607 5.16797 11.2234 6.03906 12.2636 6.86719C11.6703 5.89453 12.0381 5.27344 11.4488 4.45703C12.3822 4.92969 11.9313 5.82031 12.7936 6.70313C12.3862 5.70703 12.7936 5.08984 12.3783 4.20703C13.1772 4.79297 12.7026 5.74219 13.3473 6.64844C13.11 5.39844 13.6558 5.19531 13.4857 4.10156C14.0908 4.83594 13.4145 5.57031 13.8812 6.65234C13.8219 5.42188 14.4863 5.13672 14.3716 4.15234C14.9688 5.03516 14.0354 5.80469 14.427 6.75C14.5259 5.58594 15.3011 5.28125 15.3129 4.375C15.7875 5.20703 14.7592 5.80859 14.9253 6.91406C15.2615 5.69531 16.0881 5.54688 16.191 4.72656C16.4718 5.6875 15.3446 6.13281 15.4118 7.20312C15.748 6.12109 16.7803 5.99219 16.9938 5.19531C17.1244 6.21094 16.1079 6.39453 15.8192 7.51953C16.3531 6.60156 17.2905 6.52734 17.7097 5.80078C17.6781 6.80859 16.5311 6.94141 16.1791 7.88281C16.8396 7.08203 17.6702 7.21875 18.3307 6.51172C18.2595 7.42187 17.0927 7.37109 16.4718 8.3125C17.1876 7.66016 18.2674 7.85547 18.8171 7.29297C18.7895 8.09766 17.3577 8.03516 16.6814 8.75781C17.512 8.30469 18.5719 8.57031 19.181 8.15234C19.0703 8.85547 17.5594 8.69141 16.8356 9.24609C17.8323 8.97266 18.6036 9.39062 19.4064 9.08984C19.0149 9.77344 17.6425 9.33984 16.9147 9.78516C17.7849 9.64062 18.7024 10.1602 19.4895 9.99219C19.2324 10.5859 17.7255 9.95312 16.9187 10.3242C17.8837 10.3164 18.5126 10.9297 19.4104 10.8867C18.9239 11.4258 17.6029 10.6875 16.8317 10.8125C17.773 11.0078 18.4928 11.7734 19.2047 11.8125C18.6154 12.2539 17.5238 11.2461 16.6339 11.3711C17.5515 11.6133 18.3188 12.6406 18.8409 12.6641C18.2753 13.0469 17.16 11.7852 16.3966 11.832C17.3261 12.2461 17.7493 13.2969 18.3623 13.4453C17.6069 13.6836 16.8633 12.3047 16.0525 12.2539C16.9938 12.8398 17.0453 13.7383 17.769 14.1367C17.0057 14.3203 16.4639 12.7617 15.661 12.6289C16.4322 13.1875 16.5509 14.3867 17.0611 14.7617C16.2859 14.8008 16.0051 13.1719 15.2101 12.9375C15.8904 13.5 15.7282 14.7188 16.2582 15.2422C15.4514 15.0742 15.5542 13.6562 14.7118 13.1758C15.3169 13.9336 15.0084 15.0078 15.4039 15.6133C14.6168 15.3008 14.957 14.0273 14.2095 13.3086C14.6168 14.1133 14.1778 15.0508 14.5021 15.8281C13.7823 15.4805 14.2648 13.9766 13.7151 13.3789C13.9682 14.3086 13.5015 15.0781 13.6914 15.9102C12.9557 15.0703 13.8021 14.2227 13.1653 13.3672C13.3314 14.3477 12.6354 15.0352 12.7461 15.8555C12.1647 15.1836 13.0625 14.1094 12.6077 13.2617C12.7026 14.2266 11.8048 15.0742 11.8681 15.6836C11.3935 14.9023 12.3941 13.9805 12.1251 13.0938C12.0698 14.0156 11.1601 14.5156 10.99 15.3555C10.6855 14.4297 11.7652 13.7617 11.6703 12.8516C11.3618 13.7148 10.4838 14.0625 10.1753 14.9023C9.92217 13.9766 11.2036 13.4883 11.2353 12.5195C10.8397 13.4258 9.79165 13.6289 9.4436 14.3242C9.31309 13.4062 10.7804 12.9961 10.8358 12.125C10.3612 12.9609 9.21421 12.9961 8.8187 13.6602C8.75938 12.7461 10.3058 12.6328 10.5471 11.6758C10.0764 12.3867 8.8187 12.2969 8.29268 12.875C8.37573 12.0273 10.0487 11.9766 10.3177 11.2109C9.69277 11.8047 8.53789 11.5625 7.8853 12.0312C8.24917 11.1953 9.81934 11.3711 10.1713 10.7695C9.4792 11.125 8.24917 10.7773 7.64009 11.1367C8.1938 10.3477 9.41196 10.8203 10.1041 10.2773C8.98086 10.4375 8.30454 9.99609 7.52539 10.1992H7.52935Z" fill="#FFFF00"/>
<path fill-rule="evenodd" clip-rule="evenodd" d="M17.4368 10.0039C17.4368 11.0321 17.0232 12.0183 16.287 12.7453C15.5509 13.4724 14.5524 13.8809 13.5114 13.8809C12.4703 13.8809 11.4718 13.4724 10.7357 12.7453C9.99951 12.0183 9.58594 11.0321 9.58594 10.0039C9.58594 8.97619 9.9993 7.99057 10.7351 7.26387C11.4709 6.53716 12.4688 6.12891 13.5094 6.12891C14.5499 6.12891 15.5479 6.53716 16.2837 7.26387C17.0195 7.99057 17.4328 8.97619 17.4328 10.0039H17.4368Z" fill="#FFFF00"/>
<path fill-rule="evenodd" clip-rule="evenodd" d="M16.9319 10.0117C16.9319 10.9058 16.5723 11.7632 15.9322 12.3954C15.2921 13.0276 14.4239 13.3828 13.5187 13.3828C12.6135 13.3828 11.7453 13.0276 11.1052 12.3954C10.4651 11.7632 10.1055 10.9058 10.1055 10.0117C10.1055 9.11765 10.4651 8.2602 11.1052 7.628C11.7453 6.99579 12.6135 6.64063 13.5187 6.64062C14.4239 6.64063 15.2921 6.99579 15.9322 7.628C16.5723 8.2602 16.9319 9.11765 16.9319 10.0117Z" fill="#FF0000"/>
<path fill-rule="evenodd" clip-rule="evenodd" d="M16.4571 10.0195C16.4571 10.7872 16.1484 11.5234 15.5987 12.0663C15.0491 12.6091 14.3037 12.9141 13.5264 12.9141C12.7491 12.9141 12.0037 12.6091 11.4541 12.0663C10.9045 11.5234 10.5957 10.7872 10.5957 10.0195C10.5957 9.25185 10.9045 8.51562 11.4541 7.97279C12.0037 7.42996 12.7491 7.125 13.5264 7.125C14.3037 7.125 15.0491 7.42996 15.5987 7.97279C16.1484 8.51562 16.4571 9.25185 16.4571 10.0195Z" fill="#FFFF00"/>
<path fill-rule="evenodd" clip-rule="evenodd" d="M11.0299 8.125C11.8407 8.10547 12.8492 8.17969 13.5176 8.70313C14.2317 8.26297 15.0724 8.06671 15.9104 8.14453L16.3455 8.92969C15.6695 8.86877 14.9889 8.97901 14.368 9.25C14.8117 9.57325 15.1685 9.999 15.4071 10.49C15.6457 10.981 15.7587 11.5223 15.7364 12.0664C15.6296 12.1992 15.4596 12.3437 15.3528 12.4766C15.511 11.3633 14.9177 10.1211 14.0516 9.46875C14.7556 10.4687 15.1708 11.3672 15.0562 12.6094L14.6606 12.8594C14.8426 11.7656 14.5815 10.4766 13.7628 9.73438C14.2375 10.418 14.7041 11.6484 14.4115 12.8984C14.2849 12.9375 14.0872 13.043 13.9606 13.0781C14.1156 12.5653 14.1578 12.0256 14.0841 11.4953C14.0104 10.9651 13.8226 10.4565 13.5334 10.0039C12.9876 10.7773 12.8097 11.957 13.1182 13.0508C12.9679 13.0117 12.8532 12.9648 12.6989 12.9297C12.4735 11.7578 12.7859 10.4297 13.3278 9.73828C12.7741 10.0547 12.256 11.4062 12.4023 12.7852L12.0345 12.6172C11.8565 11.5898 12.3271 10.25 13.0035 9.47656C12.2362 9.95313 11.6113 11.1289 11.7181 12.3906C11.5994 12.2891 11.4926 12.2383 11.374 12.1328C11.2395 11.0313 11.8881 9.92188 12.6436 9.25781C12.0068 8.97266 11.457 8.91797 10.666 8.92969C10.7886 8.67578 10.9033 8.37891 11.0299 8.12109V8.125Z" fill="#FF0000"/>
</g>
</g>
<defs>
<clipPath id="clip0_331_402">
<rect width="27" height="20" fill="white"/>
</clipPath>
</defs>
</svg>
