<svg width="27" height="20" viewBox="0 0 27 20" fill="none" xmlns="http://www.w3.org/2000/svg">
<g clip-path="url(#clip0_331_413)">
<path d="M0 0H27V20H0V0Z" fill="#00ABC2"/>
<path d="M14.5889 11.092C16.0943 11.092 17.3146 9.88676 17.3146 8.40001C17.3146 6.91326 16.0943 5.70801 14.5889 5.70801C13.0836 5.70801 11.8633 6.91326 11.8633 8.40001C11.8633 9.88676 13.0836 11.092 14.5889 11.092Z" fill="#FFEC2D"/>
<path d="M14.588 5.34127C14.75 5.33927 14.8107 5.23927 14.8107 5.11927C14.8107 4.95927 14.588 4.19727 14.588 4.19727C14.588 4.19727 14.3652 4.95927 14.3652 5.11927C14.3652 5.23927 14.426 5.34127 14.588 5.34127Z" fill="#FFEC2D"/>
<path d="M17.6854 8.39969C17.6875 8.55969 17.7887 8.61969 17.9102 8.61969C18.0722 8.61969 18.8438 8.39969 18.8438 8.39969C18.8438 8.39969 18.0722 8.17969 17.9102 8.17969C17.7887 8.17969 17.6854 8.23969 17.6854 8.39969Z" fill="#FFEC2D"/>
<path d="M14.5878 11.4576C14.4258 11.4596 14.365 11.5596 14.365 11.6796C14.365 11.8396 14.5878 12.6016 14.5878 12.6016C14.5878 12.6016 14.8105 11.8396 14.8105 11.6796C14.8105 11.5596 14.7498 11.4576 14.5878 11.4576Z" fill="#FFEC2D"/>
<path d="M11.4923 8.39914C11.4903 8.23914 11.389 8.17914 11.2675 8.17914C11.1055 8.17914 10.334 8.39914 10.334 8.39914C10.334 8.39914 11.1055 8.61914 11.2675 8.61914C11.389 8.61914 11.4923 8.55914 11.4923 8.39914Z" fill="#FFEC2D"/>
<path d="M15.7438 5.54802C15.8727 5.62619 15.9647 5.56826 16.0174 5.46279C16.0877 5.32216 16.2464 4.54251 16.2464 4.54251C16.2464 4.54251 15.7355 5.10237 15.6652 5.243C15.6125 5.34847 15.6157 5.4681 15.7438 5.54802Z" fill="#FFEC2D"/>
<path d="M17.4659 9.54406C17.3942 9.6741 17.4575 9.76529 17.5664 9.81659C17.7116 9.88499 18.5044 10.0331 18.5044 10.0331C18.5044 10.0331 17.9137 9.52973 17.7684 9.46133C17.6595 9.41003 17.5394 9.41488 17.4659 9.54406Z" fill="#FFEC2D"/>
<path d="M13.434 11.2498C13.305 11.1717 13.213 11.2296 13.1603 11.3351C13.09 11.4757 12.9313 12.2553 12.9313 12.2553C12.9313 12.2553 13.4422 11.6955 13.5125 11.5549C13.5652 11.4494 13.562 11.3298 13.434 11.2498Z" fill="#FFEC2D"/>
<path d="M11.7138 7.25477C11.7855 7.12473 11.7222 7.03354 11.6133 6.98224C11.468 6.91384 10.6752 6.76573 10.6752 6.76573C10.6752 6.76573 11.266 7.2691 11.4112 7.3375C11.5202 7.38879 11.6403 7.38395 11.7138 7.25477Z" fill="#FFEC2D"/>
<path d="M16.7799 6.23695C16.8959 6.34868 17.0104 6.32039 17.0963 6.23554C17.2109 6.1224 17.5989 5.42802 17.5989 5.42802C17.5989 5.42802 16.8959 5.81128 16.7813 5.92441C16.6954 6.00927 16.6653 6.12382 16.7799 6.23695Z" fill="#FFEC2D"/>
<path d="M16.7793 10.5615C16.6662 10.676 16.6948 10.7892 16.7807 10.874C16.8953 10.9872 17.5984 11.3704 17.5984 11.3704C17.5984 11.3704 17.2103 10.676 17.0958 10.5629C17.0098 10.478 16.8939 10.4483 16.7793 10.5615Z" fill="#FFEC2D"/>
<path d="M12.3998 10.5619C12.2838 10.4502 12.1693 10.4784 12.0834 10.5633C11.9688 10.6764 11.5808 11.3708 11.5808 11.3708C11.5808 11.3708 12.2838 10.9876 12.3984 10.8744C12.4843 10.7896 12.5144 10.675 12.3998 10.5619Z" fill="#FFEC2D"/>
<path d="M12.4004 6.23735C12.5135 6.1228 12.4849 6.00966 12.3989 5.92481C12.2844 5.81167 11.5813 5.42842 11.5813 5.42842C11.5813 5.42842 11.9694 6.1228 12.0839 6.23594C12.1698 6.32079 12.2858 6.35049 12.4004 6.23735Z" fill="#FFEC2D"/>
<path d="M17.4648 7.25456C17.5401 7.38289 17.6584 7.38858 17.7674 7.33729C17.9126 7.26889 18.5034 6.76552 18.5034 6.76552C18.5034 6.76552 17.7106 6.91363 17.5653 6.98203C17.4564 7.03333 17.3913 7.12537 17.4648 7.25456Z" fill="#FFEC2D"/>
<path d="M15.7431 11.2499C15.6159 11.3316 15.6118 11.4494 15.6646 11.5549C15.7349 11.6955 16.2458 12.2554 16.2458 12.2554C16.2458 12.2554 16.0871 11.4758 16.0168 11.3351C15.9641 11.2297 15.8712 11.17 15.7431 11.2499Z" fill="#FFEC2D"/>
<path d="M11.711 9.54427C11.6357 9.41594 11.5173 9.41024 11.4084 9.46154C11.2632 9.52994 10.6724 10.0333 10.6724 10.0333C10.6724 10.0333 11.4652 9.8852 11.6105 9.8168C11.7194 9.7655 11.7844 9.67346 11.711 9.54427Z" fill="#FFEC2D"/>
<path d="M13.4327 5.54796C13.5598 5.46627 13.5639 5.34841 13.5112 5.24293C13.4409 5.1023 12.93 4.54245 12.93 4.54245C12.93 4.54245 13.0887 5.3221 13.159 5.46273C13.2117 5.5682 13.3046 5.62788 13.4327 5.54796Z" fill="#FFEC2D"/>
<path d="M15.0714 5.29647C15.1415 5.40244 15.2089 5.36303 15.2585 5.26734C15.3247 5.13976 15.5445 4.38423 15.5445 4.38423C15.5445 4.38423 15.134 4.84396 15.0679 4.97154C15.0182 5.06723 15.002 5.1889 15.0714 5.29647Z" fill="#FFEC2D"/>
<path d="M17.6669 8.9183C17.6052 9.01692 17.6731 9.08742 17.7831 9.12794C17.9297 9.18196 18.7154 9.30459 18.7154 9.30459C18.7154 9.30459 18.1043 8.91262 17.9576 8.85859C17.8477 8.81807 17.7304 8.82036 17.6669 8.9183Z" fill="#FFEC2D"/>
<path d="M14.1044 11.5033C14.0343 11.3974 13.9669 11.4368 13.9173 11.5325C13.8511 11.66 13.6312 12.4156 13.6312 12.4156C13.6312 12.4156 14.0417 11.9558 14.1079 11.8283C14.1576 11.7326 14.1738 11.6109 14.1044 11.5033Z" fill="#FFEC2D"/>
<path d="M11.5069 7.8815C11.5686 7.78288 11.5007 7.71239 11.3908 7.67187C11.2441 7.61784 10.4584 7.49521 10.4584 7.49521C10.4584 7.49521 11.0695 7.88718 11.2162 7.94121C11.3262 7.98173 11.4435 7.97944 11.5069 7.8815Z" fill="#FFEC2D"/>
<path d="M16.1779 5.749C16.2176 5.91614 16.3114 5.91528 16.4068 5.83847C16.5341 5.73605 17.0876 5.01673 17.0876 5.01673C17.0876 5.01673 16.4292 5.27291 16.302 5.37533C16.2066 5.45214 16.1397 5.58059 16.1779 5.749Z" fill="#FFEC2D"/>
<path d="M17.2897 10.009C17.1077 10.0763 17.1007 10.1728 17.1748 10.2589C17.2735 10.3737 17.996 10.8299 17.996 10.8299C17.996 10.8299 17.7776 10.1925 17.6788 10.0777C17.6047 9.9916 17.473 9.94312 17.2897 10.009Z" fill="#FFEC2D"/>
<path d="M12.9979 11.0498C12.9582 10.8827 12.8644 10.8835 12.769 10.9604C12.6417 11.0628 12.0882 11.7821 12.0882 11.7821C12.0882 11.7821 12.7466 11.5259 12.8738 11.4235C12.9692 11.3467 13.036 11.2182 12.9979 11.0498Z" fill="#FFEC2D"/>
<path d="M11.888 6.79079C12.0701 6.72347 12.0771 6.62701 12.003 6.54091C11.9042 6.4261 11.1817 5.96995 11.1817 5.96995C11.1817 5.96995 11.4001 6.6073 11.4989 6.7221C11.573 6.8082 11.7047 6.85668 11.888 6.79079Z" fill="#FFEC2D"/>
<path d="M17.3072 6.46633C17.1149 6.77095 17.1016 6.87109 17.1728 6.85407C17.2677 6.83136 17.9859 6.304 17.9859 6.304C17.9859 6.304 17.7999 5.99289 17.705 6.0156C17.6338 6.03263 17.5007 6.16144 17.3072 6.46633Z" fill="#FFEC2D"/>
<path d="M16.9407 10.8435C16.798 10.8614 16.6904 10.9681 16.6249 11.089C16.5377 11.2501 16.317 11.9955 16.317 11.9955C16.317 11.9955 16.9272 11.2063 17.0145 11.0451C17.0799 10.9243 17.0824 10.8276 16.9407 10.8435Z" fill="#FFEC2D"/>
<path d="M11.8705 10.3325C12.0629 10.0279 12.0761 9.92773 12.0049 9.94476C11.91 9.96747 11.1919 10.4948 11.1919 10.4948C11.1919 10.4948 11.3778 10.8059 11.4728 10.7832C11.544 10.7662 11.677 10.6374 11.8705 10.3325Z" fill="#FFEC2D"/>
<path d="M12.237 5.95533C12.3797 5.93738 12.4874 5.8307 12.5528 5.70985C12.64 5.54873 12.8608 4.80328 12.8608 4.80328C12.8608 4.80328 12.2505 5.59256 12.1633 5.75369C12.0978 5.87453 12.0953 5.97127 12.237 5.95533Z" fill="#FFEC2D"/>
<path d="M17.6671 7.53144C17.607 7.65079 17.6757 7.72393 17.7861 7.75825C17.9333 7.80401 18.7195 7.85863 18.7195 7.85863C18.7195 7.85863 18.1037 7.47738 17.9565 7.43162C17.8461 7.39729 17.729 7.41266 17.6671 7.53144Z" fill="#FFEC2D"/>
<path d="M15.5905 11.4984C15.5584 11.397 15.4964 11.4392 15.4359 11.5362C15.3553 11.6654 15.0139 12.4228 15.0139 12.4228C15.0139 12.4228 15.4407 11.9487 15.5213 11.8195C15.5818 11.7225 15.6216 11.6014 15.5905 11.4984Z" fill="#FFEC2D"/>
<path d="M11.5087 9.26837C11.5688 9.14902 11.5 9.07588 11.3896 9.04156C11.2424 8.99579 10.4563 8.94118 10.4563 8.94118C10.4563 8.94118 11.0721 9.32243 11.2193 9.36819C11.3297 9.40251 11.4467 9.38714 11.5087 9.26837Z" fill="#FFEC2D"/>
<path d="M13.5853 5.30138C13.6173 5.40278 13.6794 5.36061 13.7399 5.26365C13.8205 5.13436 14.1618 4.377 14.1618 4.377C14.1618 4.377 13.7351 4.85107 13.6544 4.98035C13.594 5.07731 13.5542 5.19836 13.5853 5.30138Z" fill="#FFEC2D"/>
<path d="M14.4953 13.0998C14.4245 13.2258 14.3819 13.3718 14.2928 13.4858C14.0174 13.2398 13.6205 13.2458 13.2722 13.2318C12.9847 13.2158 12.6728 13.1898 12.4501 12.9878C12.2172 12.7978 12.0248 12.5538 11.7656 12.3998C11.5221 12.348 11.2931 12.2435 11.0954 12.0938C10.6863 11.7638 10.4514 11.2738 10.0505 10.9338C9.97555 10.8618 9.88442 10.8038 9.79937 10.7418C9.71837 10.7618 9.75482 10.9338 9.6556 10.8458C9.60092 10.8058 9.46525 10.8038 9.4531 10.8578C9.5746 11.0178 9.69812 11.1978 9.71635 11.4018C9.6313 11.4098 9.48347 11.3838 9.44297 11.4138C9.55426 11.5787 9.6941 11.7229 9.85607 11.8398C9.77912 11.8518 9.62725 11.8458 9.59687 11.8758C9.74848 12.0192 9.93566 12.1206 10.1396 12.1698C10.1801 12.2258 10.0768 12.3338 10.1659 12.3818C10.2165 12.4018 10.3866 12.4378 10.2692 12.4958C10.1882 12.5478 10.2185 12.6738 10.3218 12.6698C10.3866 12.7038 10.5324 12.7098 10.5446 12.7698C10.4858 12.8258 10.3076 12.8938 10.4595 12.9498C10.6027 13.03 10.7629 13.0759 10.9273 13.0838C10.8463 13.1518 10.745 13.1898 10.662 13.2538C11.0366 13.4718 11.4518 13.6138 11.8649 13.7538C12.0269 13.8058 12.1949 13.8558 12.365 13.8878C11.8709 13.8598 11.393 13.7158 10.9435 13.5178C10.7106 13.4178 10.4777 13.3198 10.2388 13.2338C10.3421 13.1798 10.4636 13.1658 10.5729 13.1198C10.3461 13.0758 10.1011 13.0598 9.90467 12.9398C9.93302 12.8838 10.0464 12.8818 10.1112 12.8538C10.2327 12.8258 10.3056 12.7938 10.1375 12.7818C9.96745 12.7358 9.77305 12.7558 9.62117 12.6558C9.6313 12.5958 9.78925 12.6158 9.85202 12.5898C9.93302 12.5758 10.0221 12.5638 10.0869 12.5098C9.82367 12.4038 9.47942 12.4798 9.27287 12.2498C9.2263 12.1618 9.4207 12.2318 9.47537 12.2178C9.61712 12.2178 9.769 12.2618 9.90467 12.2058C9.51992 12.0398 9.10885 11.8858 8.81725 11.5778C8.78485 11.5278 8.68765 11.3918 8.76662 11.3758C8.99342 11.4058 9.15745 11.6498 9.40247 11.6118C9.43487 11.5698 9.26072 11.4998 9.21617 11.4378C8.84985 11.1471 8.53032 10.8032 8.26847 10.4178C8.25227 10.2838 8.46085 10.2638 8.51552 10.3658C8.78687 10.6258 9.0319 10.9258 9.37007 11.1018C9.49157 11.1598 9.30122 11.0338 9.27692 10.9878C8.95529 10.6356 8.67725 10.2469 8.4487 9.82981C8.4082 9.75381 8.34542 9.61581 8.46287 9.57581C8.5783 9.51781 8.69575 9.59581 8.75447 9.69581C8.9833 9.98181 9.1534 10.3218 9.43892 10.5598C9.19592 10.0938 8.9347 9.59981 8.92862 9.06381C8.9347 8.95981 8.94077 8.80381 9.08455 8.80581C9.20605 8.78781 9.1858 8.93981 9.2263 9.01181C9.34375 9.40781 9.39437 9.83581 9.6313 10.1838C9.58067 9.89181 9.5017 9.58981 9.55435 9.29181C9.5665 9.19181 9.67585 9.16381 9.75077 9.22381C9.8095 9.36381 9.82165 9.54181 9.8743 9.69381C10.1899 10.7291 10.8544 11.6268 11.7575 12.2378C12.4971 12.7376 13.36 13.03 14.2544 13.0838C14.3354 13.0918 14.4164 13.0938 14.4953 13.0978M17.2574 14.9198C17.1116 15.0078 16.9982 14.8518 16.8767 14.8058C16.7876 14.8538 16.7795 15.0098 16.6985 15.0858C16.6013 15.1958 16.4798 15.0538 16.49 14.9458C16.3725 15.0438 16.3138 15.2658 16.1255 15.2338C16.0343 15.1618 15.9675 15.0098 15.8987 15.1838C15.844 15.2678 15.6962 15.3878 15.6172 15.2598C15.5929 15.1478 15.5362 15.0158 15.4754 15.1938C15.4309 15.3218 15.2932 15.4138 15.1636 15.3578C15.0907 15.2998 15.2203 15.0838 15.1292 15.0978C14.9915 15.1898 14.9105 15.4118 14.7181 15.3938C14.6432 15.3138 14.7647 15.1718 14.6816 15.0798C14.5865 15.2018 14.4791 15.3818 14.3111 15.3938C14.2301 15.3298 14.3151 15.1438 14.2625 15.1178C14.0924 15.2178 13.9101 15.3998 13.6955 15.3438C13.7785 15.0238 14.1308 14.9138 14.4245 14.8898C14.9327 14.8278 15.4673 14.9418 15.9574 14.7598C16.0364 14.7118 16.2267 14.6458 16.1599 14.5358C16.0991 14.4478 16.3158 14.4818 16.3361 14.3798C16.3239 14.2518 16.4373 14.2698 16.5467 14.2598C17.0408 14.2378 17.5288 14.3398 18.0209 14.3578C18.0573 14.5938 17.792 14.7598 17.5754 14.6878C17.4741 14.7038 17.3222 14.4558 17.3526 14.6358C17.3324 14.7318 17.3445 14.8558 17.2574 14.9198ZM13.0576 14.4358C13.171 14.5378 13.252 14.4158 13.3593 14.3698C13.7098 14.2343 14.0391 14.0505 14.3374 13.8238C14.5237 13.6718 14.6857 13.4738 14.9368 13.4238C15.4268 13.2778 15.9473 13.2958 16.4373 13.1598C16.8119 12.6558 17.4458 12.4738 17.9783 12.1838C18.0978 12.1478 18.1444 12.0498 18.1808 11.9438C18.3833 11.6258 18.6608 11.3458 18.9888 11.1538C19.1437 11.0635 19.3261 11.0309 19.5032 11.0618C19.4788 11.2658 19.3802 11.4542 19.2257 11.5918C19.3452 11.5898 19.4485 11.5158 19.5659 11.5198C19.6064 11.7318 19.3756 11.8418 19.2521 11.9738C19.3209 11.9898 19.5842 12.0098 19.4404 12.0778C19.2581 12.2018 19.0496 12.2878 18.8815 12.4338C19.0374 12.4618 19.0556 12.4938 18.8977 12.5498C18.8106 12.6058 18.6466 12.6258 18.6304 12.7378C18.7478 12.8098 18.5777 12.8778 18.5109 12.9018C18.3854 12.9318 18.2517 12.9858 18.4198 13.0818C18.357 13.1758 18.2193 13.1958 18.1079 13.1858C18.1424 13.2938 18.191 13.4138 18.0512 13.4618C17.7378 13.7065 17.3624 13.8615 16.9658 13.9098C17.462 13.9458 17.9743 13.8558 18.3975 13.5898C18.4542 13.5238 18.7478 13.4518 18.5838 13.3978C18.5069 13.3658 18.3408 13.3298 18.3287 13.2718C18.5595 13.1318 18.8491 13.1818 19.0961 13.0998C19.1022 13.0198 18.9078 13.0418 18.8349 13.0238C18.6628 13.0098 18.6729 12.9658 18.839 12.9498C19.0496 12.8938 19.2885 12.8838 19.4667 12.7498C19.3229 12.6818 19.1407 12.7398 18.9868 12.6858C19.248 12.5738 19.5558 12.5618 19.7907 12.3918C19.898 12.2738 19.653 12.3118 19.5821 12.3138C19.4384 12.3398 19.3715 12.2698 19.5356 12.2118C19.817 12.0058 20.1714 11.8738 20.3699 11.5778C20.4164 11.5118 20.4792 11.3118 20.3294 11.3818C20.135 11.4478 19.9628 11.6638 19.7381 11.5978C20.1795 11.2598 20.5967 10.8778 20.8984 10.4118C20.9146 10.2758 20.6999 10.2618 20.6453 10.3678C20.3618 10.6358 20.1066 10.9538 19.7441 11.1238C20.0858 10.7864 20.3825 10.4074 20.627 9.99581C20.6817 9.87581 20.8255 9.72981 20.7485 9.59581C20.621 9.49181 20.463 9.58781 20.3982 9.70981C20.1775 9.99381 20.0114 10.3238 19.73 10.5558C19.975 10.0898 20.2322 9.59181 20.2362 9.05581C20.2362 8.94381 20.216 8.77981 20.0621 8.80181C19.9406 8.82181 19.9709 9.00181 19.9203 9.09181C19.811 9.45981 19.7583 9.85781 19.5356 10.1778C19.5862 9.87981 19.6733 9.56781 19.6064 9.26781C19.574 9.13181 19.3533 9.18981 19.3837 9.32381C19.1204 10.6418 18.2234 11.7938 17.0549 12.4598C16.5183 12.7598 15.9209 12.9518 15.3094 13.0398C15.1474 13.0738 14.9692 13.0538 14.8133 13.1098C14.4326 13.3958 14.2037 13.8778 13.7238 14.0278C13.5071 14.1338 13.2277 14.1558 13.0738 14.3518C13.0613 14.378 13.0558 14.4069 13.0576 14.4358ZM14.1045 14.2298C14.0316 14.2338 13.9607 14.2418 13.8899 14.2638C13.7947 14.2778 13.7036 14.3098 13.6104 14.3238L13.5719 14.3318L13.5092 14.3378C13.5173 14.3713 13.5173 14.4063 13.5092 14.4398C13.5026 14.4549 13.4929 14.4685 13.4808 14.4798C13.4687 14.4958 13.4545 14.5078 13.4363 14.5158C13.4198 14.5238 13.4019 14.5286 13.3836 14.5298C13.3654 14.5298 13.3472 14.5298 13.3289 14.5218C13.3107 14.5158 13.2945 14.5058 13.2783 14.4918L13.2216 14.5018H13.169L13.1123 14.4818C13.094 14.4747 13.0763 14.466 13.0596 14.4558C12.9908 14.4958 12.9138 14.5338 12.8713 14.6038C12.8515 14.6358 12.8404 14.6723 12.8389 14.7098C12.8348 14.7578 12.847 14.8058 12.8672 14.8498C12.8753 14.8618 12.8814 14.8038 12.9037 14.7958C12.9422 14.7638 12.9908 14.7418 13.0394 14.7298C13.0799 14.7098 13.0738 14.7298 13.0576 14.7618C13.0535 14.7798 13.0313 14.8418 13.0616 14.8098C13.2017 14.7581 13.3496 14.7304 13.499 14.7278C13.7137 14.7058 13.9283 14.6998 14.143 14.6978L14.7505 14.7098C14.8477 14.7138 14.9449 14.7338 15.0401 14.7178C15.0623 14.7118 15.0988 14.7118 15.113 14.6978C15.0684 14.6738 15.0178 14.6718 14.9712 14.6658H14.5844C14.4771 14.6558 14.3657 14.6538 14.2645 14.6138C14.2361 14.6038 14.2118 14.5778 14.1855 14.6058C14.147 14.6194 14.1068 14.6281 14.066 14.6318C13.9952 14.6358 13.9243 14.6218 13.8595 14.5958C13.9061 14.5318 13.9628 14.4758 14.0154 14.4158L13.8899 14.3898C13.9648 14.3398 14.0316 14.2818 14.1045 14.2298Z" fill="#FFEC2D"/>
<path d="M13.365 14.4661C13.3918 14.4661 13.4136 14.4446 13.4136 14.4181C13.4136 14.3916 13.3918 14.3701 13.365 14.3701C13.3382 14.3701 13.3164 14.3916 13.3164 14.4181C13.3164 14.4446 13.3382 14.4661 13.365 14.4661Z" fill="#FFEC2D"/>
<path d="M13.362 14.4296C13.3732 14.4296 13.3823 14.4207 13.3823 14.4096C13.3823 14.3986 13.3732 14.3896 13.362 14.3896C13.3509 14.3896 13.3418 14.3986 13.3418 14.4096C13.3418 14.4207 13.3509 14.4296 13.362 14.4296Z" fill="#FFEC2D" stroke="#FFEC2D" stroke-width="0.192"/>
<path d="M2.43016 1.45961C2.43016 1.45961 2.23576 1.29561 2.16893 1.37761C2.06363 1.50761 2.49698 2.15761 2.49698 2.38561C2.49698 2.76161 2.24183 2.86361 1.92998 2.91561C1.71938 2.95161 1.37716 2.90161 1.37716 2.90161C1.44196 2.81561 1.48448 2.78961 1.59181 2.78361C1.47031 2.72361 1.34881 2.58761 1.34881 2.37761C1.34881 2.05561 1.48246 1.92161 1.48246 1.55761C1.48246 1.35961 1.31641 1.09961 1.31641 1.09961C1.61206 1.12961 1.75786 1.39961 1.67483 1.61561C1.69762 1.62009 1.72118 1.61896 1.74342 1.61234C1.76567 1.60571 1.78592 1.59379 1.80241 1.57761C1.82266 1.63761 1.79026 1.70761 1.74368 1.76761C1.78013 1.78761 1.80848 1.77561 1.86518 1.76361C1.86113 1.82361 1.82468 1.89161 1.73153 1.95361C1.99883 1.88561 2.16083 2.06761 2.16083 2.25961C2.16083 2.40561 2.05958 2.50961 1.95833 2.50961C1.92593 2.50961 1.87733 2.49561 1.85101 2.47561C1.83076 2.51561 1.84291 2.56961 1.86113 2.60961C1.78823 2.58961 1.73963 2.54561 1.77406 2.45561C1.71736 2.45161 1.67281 2.43161 1.64243 2.39561C1.67281 2.35561 1.71938 2.33561 1.77406 2.33561C1.73356 2.25161 1.78013 2.20561 1.84696 2.16761C1.84696 2.16761 1.80443 2.33561 1.91176 2.33561C1.96036 2.33561 2.00491 2.32161 2.00491 2.24961C2.00491 2.18761 1.95023 2.10161 1.82266 2.10761C1.69711 2.11361 1.59383 2.19361 1.59383 2.39361C1.59383 2.57761 1.74571 2.66961 1.94416 2.67361C2.12236 2.68161 2.25803 2.58561 2.25803 2.40361C2.25803 2.15961 1.90366 1.60761 1.90366 1.39161C1.90366 1.22961 2.04946 1.13761 2.19526 1.13761C2.38156 1.13761 2.53951 1.32161 2.53951 1.32161L2.43016 1.45761V1.45961Z" fill="#FFEC2D"/>
<path d="M2.47034 5.84204C2.47034 6.24804 2.10179 6.45604 1.81222 6.45604C1.42342 6.45604 1.21484 6.22604 1.21484 5.92404C1.21484 5.75404 1.24724 5.64604 1.32622 5.48404L2.22127 3.65004C2.25369 3.5729 2.26756 3.48937 2.26177 3.40604C2.26177 3.24204 2.09977 3.10804 1.93169 3.10604C1.77779 3.10004 1.60769 3.24604 1.60769 3.41204C1.60769 3.61404 1.71502 3.70404 1.82437 3.70404C1.95802 3.70404 2.01067 3.65004 2.01067 3.55604C2.01067 3.49204 1.98029 3.46404 1.93372 3.46404C1.81829 3.46404 1.85272 3.61604 1.85272 3.61604C1.83748 3.61326 1.82305 3.60719 1.81046 3.59826C1.79787 3.58933 1.78743 3.57777 1.77988 3.56439C1.77234 3.55102 1.76788 3.53617 1.76682 3.5209C1.76575 3.50562 1.76812 3.49031 1.77374 3.47604C1.7304 3.46644 1.69134 3.4433 1.66237 3.41004C1.69274 3.38004 1.72919 3.35804 1.77374 3.35004C1.74742 3.26204 1.78387 3.22004 1.86082 3.20004C1.84697 3.23011 1.84342 3.26381 1.85069 3.29604C1.97219 3.26004 2.16052 3.31604 2.16052 3.52404C2.16052 3.73204 2.01472 3.90604 1.74134 3.86404C1.80614 3.89404 1.83854 3.95604 1.84664 4.02604C1.79602 4.00604 1.74134 4.00604 1.74134 4.00604C1.77374 4.06004 1.81829 4.10604 1.81627 4.21804C1.76564 4.19404 1.71704 4.15204 1.65427 4.17804C1.75552 4.37804 1.62997 4.65004 1.31002 4.71404C1.42747 4.57804 1.48417 4.43404 1.48417 4.28804C1.48417 3.81804 1.35254 3.74004 1.35254 3.41204C1.35463 3.33597 1.37499 3.26148 1.41196 3.19471C1.44893 3.12795 1.50145 3.07082 1.56517 3.02804V3.03404C1.52598 3.02609 1.48894 3.01005 1.45648 2.98695C1.42403 2.96386 1.39689 2.93424 1.37684 2.90004C1.60243 2.83864 1.84089 2.84071 2.06534 2.90604C2.14042 2.91653 2.21215 2.94355 2.27524 2.98509C2.33833 3.02663 2.39116 3.08163 2.42984 3.14604C2.47027 3.23716 2.49115 3.33556 2.49115 3.43504C2.49115 3.53452 2.47027 3.63293 2.42984 3.72404C2.30227 3.98404 1.70692 5.23604 1.52062 5.62804C1.48012 5.71204 1.45784 5.80004 1.45784 5.89604C1.45784 6.13604 1.68059 6.22004 1.80614 6.22004C1.95802 6.22004 2.11394 6.10604 2.11394 5.96404C2.11394 5.87404 2.06332 5.81804 1.99244 5.81804C1.82032 5.81804 1.83044 5.96204 1.86487 6.05404C1.75754 6.00604 1.69679 5.92204 1.71299 5.83404C1.64654 5.82302 1.58624 5.78899 1.54289 5.73804C1.58339 5.68604 1.63604 5.64604 1.71299 5.64404C1.67857 5.50604 1.77374 5.44804 1.86487 5.41604C1.83652 5.51604 1.81627 5.63404 1.99244 5.63404C2.12002 5.63404 2.21924 5.65404 2.27797 5.73804L2.29214 5.19804C2.30024 5.03604 2.07344 5.03804 1.92764 5.08804C1.98232 4.90204 2.09369 4.80004 2.35289 4.82604C2.31318 4.81096 2.27929 4.78391 2.25603 4.74873C2.23276 4.71354 2.22131 4.67202 2.22329 4.63004C2.22329 4.47804 2.34884 4.31004 2.42984 4.26004L2.47034 5.84004V5.84204Z" fill="#FFEC2D"/>
<path d="M2.47034 7.05737C2.47034 6.65137 2.10179 6.44337 1.81222 6.44337C1.42342 6.44337 1.21484 6.67337 1.21484 6.97537C1.21484 7.14537 1.24724 7.25337 1.32622 7.41537L2.22127 9.24937C2.25369 9.32652 2.26756 9.41004 2.26177 9.49337C2.26177 9.65737 2.09977 9.79137 1.93169 9.79337C1.77779 9.79937 1.60769 9.65337 1.60769 9.48737C1.60769 9.28537 1.71502 9.19537 1.82437 9.19537C1.95802 9.19537 2.01067 9.24937 2.01067 9.34337C2.01067 9.40737 1.98029 9.43537 1.93372 9.43537C1.81829 9.43537 1.85272 9.28337 1.85272 9.28337C1.83748 9.28616 1.82305 9.29223 1.81046 9.30116C1.79787 9.31008 1.78743 9.32165 1.77988 9.33502C1.77234 9.34839 1.76788 9.36325 1.76682 9.37852C1.76575 9.39379 1.76812 9.40911 1.77374 9.42337C1.7304 9.43297 1.69134 9.45612 1.66237 9.48937C1.69274 9.51937 1.72919 9.54137 1.77374 9.54937C1.74742 9.63737 1.78387 9.67937 1.86082 9.69937C1.84697 9.66931 1.84342 9.63561 1.85069 9.60337C1.97219 9.63937 2.16052 9.58337 2.16052 9.37537C2.16052 9.16737 2.01472 8.99337 1.74134 9.03537C1.80614 9.00537 1.83854 8.94337 1.84664 8.87337C1.79602 8.89337 1.74134 8.89337 1.74134 8.89337C1.77374 8.83937 1.81829 8.79337 1.81627 8.68137C1.76564 8.70537 1.71704 8.74737 1.65427 8.72137C1.75552 8.52137 1.62997 8.24937 1.31002 8.18537C1.42747 8.32137 1.48417 8.46537 1.48417 8.61137C1.48417 9.08137 1.35254 9.15937 1.35254 9.48737C1.35463 9.56344 1.37499 9.63793 1.41196 9.7047C1.44893 9.77147 1.50145 9.82859 1.56517 9.87137V9.86537C1.52598 9.87332 1.48894 9.88937 1.45648 9.91246C1.42403 9.93556 1.39689 9.96518 1.37684 9.99937C1.60243 10.0608 1.84089 10.0587 2.06534 9.99337C2.14042 9.98288 2.21215 9.95587 2.27524 9.91433C2.33833 9.87279 2.39116 9.81778 2.42984 9.75337C2.47027 9.66226 2.49115 9.56385 2.49115 9.46437C2.49115 9.36489 2.47027 9.26649 2.42984 9.17537C2.30227 8.91537 1.70692 7.66337 1.52062 7.27137C1.48012 7.18737 1.45784 7.09937 1.45784 7.00337C1.45784 6.76337 1.68059 6.67937 1.80614 6.67937C1.95802 6.67937 2.11394 6.79337 2.11394 6.93537C2.11394 7.02537 2.06332 7.08137 1.99244 7.08137C1.82032 7.08137 1.83044 6.93737 1.86487 6.84537C1.75754 6.89337 1.69679 6.97737 1.71299 7.06537C1.64654 7.07639 1.58624 7.11042 1.54289 7.16137C1.58339 7.21337 1.63604 7.25337 1.71299 7.25537C1.67857 7.39337 1.77374 7.45137 1.86487 7.48337C1.83652 7.38337 1.81627 7.26537 1.99244 7.26537C2.12002 7.26537 2.21924 7.24537 2.27797 7.16137L2.29214 7.70137C2.30024 7.86337 2.07344 7.86137 1.92764 7.81137C1.98232 7.99737 2.09369 8.09937 2.35289 8.07337C2.31318 8.08845 2.27929 8.11551 2.25603 8.15069C2.23276 8.18587 2.22131 8.2274 2.22329 8.26937C2.22329 8.42137 2.34884 8.58937 2.42984 8.63937L2.47034 7.05937V7.05737Z" fill="#FFEC2D"/>
<path d="M2.42922 1.45961C2.42922 1.45961 2.62362 1.29561 2.69044 1.37761C2.79574 1.50761 2.36239 2.15761 2.36239 2.38561C2.36239 2.76161 2.61754 2.86361 2.92939 2.91561C3.13999 2.95161 3.48222 2.90161 3.48222 2.90161C3.41742 2.81561 3.37489 2.78961 3.26757 2.78361C3.38907 2.72361 3.51057 2.58761 3.51057 2.37761C3.51057 2.05561 3.37692 1.92161 3.37692 1.55761C3.37692 1.35961 3.54297 1.09961 3.54297 1.09961C3.24732 1.12961 3.10152 1.39961 3.18454 1.61561C3.16175 1.62009 3.1382 1.61896 3.11595 1.61234C3.09371 1.60571 3.07345 1.59379 3.05697 1.57761C3.03672 1.63761 3.06912 1.70761 3.11569 1.76761C3.07924 1.78761 3.05089 1.77561 2.99419 1.76361C2.99824 1.82361 3.03469 1.89161 3.12784 1.95361C2.86054 1.88561 2.69854 2.06761 2.69854 2.25961C2.69854 2.40561 2.79979 2.50961 2.90104 2.50961C2.93344 2.50961 2.98204 2.49561 3.00837 2.47561C3.02862 2.51561 3.01647 2.56961 2.99824 2.60961C3.07114 2.58961 3.11974 2.54561 3.08532 2.45561C3.14202 2.45161 3.18657 2.43161 3.21694 2.39561C3.18657 2.35561 3.13999 2.33561 3.08532 2.33561C3.12582 2.25161 3.07924 2.20561 3.01242 2.16761C3.01242 2.16761 3.05494 2.33561 2.94762 2.33561C2.89902 2.33561 2.85447 2.32161 2.85447 2.24961C2.85447 2.18761 2.90914 2.10161 3.03672 2.10761C3.16227 2.11361 3.26554 2.19361 3.26554 2.39361C3.26554 2.57761 3.11367 2.66961 2.91522 2.67361C2.73702 2.68161 2.60134 2.58561 2.60134 2.40361C2.60134 2.15961 2.95572 1.60761 2.95572 1.39161C2.95572 1.22961 2.80992 1.13761 2.66412 1.13761C2.47782 1.13761 2.31987 1.32161 2.31987 1.32161L2.42922 1.45761V1.45961Z" fill="#FFEC2D"/>
<path d="M2.38903 5.84204C2.38903 6.24804 2.75758 6.45604 3.04716 6.45604C3.43596 6.45604 3.64453 6.22604 3.64453 5.92404C3.64453 5.75404 3.61213 5.64604 3.53316 5.48404L2.63811 3.65004C2.60568 3.5729 2.59182 3.48937 2.59761 3.40604C2.59761 3.24204 2.75961 3.10804 2.92768 3.10604C3.08158 3.10004 3.25168 3.24604 3.25168 3.41204C3.25168 3.61404 3.14436 3.70404 3.03501 3.70404C2.90136 3.70404 2.84871 3.65004 2.84871 3.55604C2.84871 3.49204 2.87908 3.46404 2.92566 3.46404C3.04108 3.46404 3.00666 3.61604 3.00666 3.61604C3.0219 3.61326 3.03633 3.60719 3.04892 3.59826C3.06151 3.58933 3.07195 3.57777 3.07949 3.56439C3.08704 3.55102 3.0915 3.53617 3.09256 3.5209C3.09362 3.50562 3.09126 3.49031 3.08563 3.47604C3.12898 3.46644 3.16803 3.4433 3.19701 3.41004C3.16663 3.38004 3.13018 3.35804 3.08563 3.35004C3.11196 3.26204 3.07551 3.22004 2.99856 3.20004C3.0124 3.23011 3.01596 3.26381 3.00868 3.29604C2.88718 3.26004 2.69886 3.31604 2.69886 3.52404C2.69886 3.73204 2.84466 3.90604 3.11803 3.86404C3.05323 3.89404 3.02083 3.95604 3.01273 4.02604C3.06336 4.00604 3.11803 4.00604 3.11803 4.00604C3.08563 4.06004 3.04108 4.10604 3.04311 4.21804C3.09373 4.19404 3.14233 4.15204 3.20511 4.17804C3.10386 4.37804 3.22941 4.65004 3.54936 4.71404C3.43191 4.57804 3.37521 4.43404 3.37521 4.28804C3.37521 3.81804 3.50683 3.74004 3.50683 3.41204C3.50475 3.33597 3.48438 3.26148 3.44741 3.19471C3.41044 3.12795 3.35793 3.07082 3.29421 3.02804V3.03404C3.33339 3.02609 3.37043 3.01005 3.40289 2.98695C3.43535 2.96386 3.46249 2.93424 3.48253 2.90004C3.25695 2.83864 3.01848 2.84071 2.79403 2.90604C2.71896 2.91653 2.64722 2.94355 2.58414 2.98509C2.52105 3.02663 2.46821 3.08163 2.42953 3.14604C2.3891 3.23716 2.36823 3.33556 2.36823 3.43504C2.36823 3.53452 2.3891 3.63293 2.42953 3.72404C2.55711 3.98404 3.15246 5.23604 3.33876 5.62804C3.37926 5.71204 3.40153 5.80004 3.40153 5.89604C3.40153 6.13604 3.17878 6.22004 3.05323 6.22004C2.90136 6.22004 2.74543 6.10604 2.74543 5.96404C2.74543 5.87404 2.79606 5.81804 2.86693 5.81804C3.03906 5.81804 3.02893 5.96204 2.99451 6.05404C3.10183 6.00604 3.16258 5.92204 3.14638 5.83404C3.21283 5.82302 3.27313 5.78899 3.31648 5.73804C3.27598 5.68604 3.22333 5.64604 3.14638 5.64404C3.18081 5.50604 3.08563 5.44804 2.99451 5.41604C3.02286 5.51604 3.04311 5.63404 2.86693 5.63404C2.73936 5.63404 2.64013 5.65404 2.58141 5.73804L2.56723 5.19804C2.55913 5.03604 2.78593 5.03804 2.93173 5.08804C2.87706 4.90204 2.76568 4.80004 2.50648 4.82604C2.54619 4.81096 2.58009 4.78391 2.60335 4.74873C2.62661 4.71354 2.63807 4.67202 2.63608 4.63004C2.63608 4.47804 2.51053 4.31004 2.42953 4.26004L2.38903 5.84004V5.84204Z" fill="#FFEC2D"/>
<path d="M2.38903 7.05737C2.38903 6.65137 2.75758 6.44337 3.04716 6.44337C3.43596 6.44337 3.64453 6.67337 3.64453 6.97537C3.64453 7.14537 3.61213 7.25337 3.53316 7.41537L2.63811 9.24937C2.60568 9.32652 2.59182 9.41004 2.59761 9.49337C2.59761 9.65737 2.75961 9.79137 2.92768 9.79337C3.08158 9.79937 3.25168 9.65337 3.25168 9.48737C3.25168 9.28537 3.14436 9.19537 3.03501 9.19537C2.90136 9.19537 2.84871 9.24937 2.84871 9.34337C2.84871 9.40737 2.87908 9.43537 2.92566 9.43537C3.04108 9.43537 3.00666 9.28337 3.00666 9.28337C3.0219 9.28616 3.03633 9.29223 3.04892 9.30116C3.06151 9.31008 3.07195 9.32165 3.07949 9.33502C3.08704 9.34839 3.0915 9.36325 3.09256 9.37852C3.09362 9.39379 3.09126 9.40911 3.08563 9.42337C3.12898 9.43297 3.16803 9.45612 3.19701 9.48937C3.16663 9.51937 3.13018 9.54137 3.08563 9.54937C3.11196 9.63737 3.07551 9.67937 2.99856 9.69937C3.0124 9.66931 3.01596 9.63561 3.00868 9.60337C2.88718 9.63937 2.69886 9.58337 2.69886 9.37537C2.69886 9.16737 2.84466 8.99337 3.11803 9.03537C3.05323 9.00537 3.02083 8.94337 3.01273 8.87337C3.06336 8.89337 3.11803 8.89337 3.11803 8.89337C3.08563 8.83937 3.04108 8.79337 3.04311 8.68137C3.09373 8.70537 3.14233 8.74737 3.20511 8.72137C3.10386 8.52137 3.22941 8.24937 3.54936 8.18537C3.43191 8.32137 3.37521 8.46537 3.37521 8.61137C3.37521 9.08137 3.50683 9.15937 3.50683 9.48737C3.50475 9.56344 3.48438 9.63793 3.44741 9.7047C3.41044 9.77147 3.35793 9.82859 3.29421 9.87137V9.86537C3.33339 9.87332 3.37043 9.88937 3.40289 9.91246C3.43535 9.93556 3.46249 9.96518 3.48253 9.99937C3.25695 10.0608 3.01848 10.0587 2.79403 9.99337C2.71896 9.98288 2.64722 9.95587 2.58414 9.91433C2.52105 9.87279 2.46821 9.81778 2.42953 9.75337C2.3891 9.66226 2.36823 9.56385 2.36823 9.46437C2.36823 9.36489 2.3891 9.26649 2.42953 9.17537C2.55711 8.91537 3.15246 7.66337 3.33876 7.27137C3.37926 7.18737 3.40153 7.09937 3.40153 7.00337C3.40153 6.76337 3.17878 6.67937 3.05323 6.67937C2.90136 6.67937 2.74543 6.79337 2.74543 6.93537C2.74543 7.02537 2.79606 7.08137 2.86693 7.08137C3.03906 7.08137 3.02893 6.93737 2.99451 6.84537C3.10183 6.89337 3.16258 6.97737 3.14638 7.06537C3.21283 7.07639 3.27313 7.11042 3.31648 7.16137C3.27598 7.21337 3.22333 7.25337 3.14638 7.25537C3.18081 7.39337 3.08563 7.45137 2.99451 7.48337C3.02286 7.38337 3.04311 7.26537 2.86693 7.26537C2.73936 7.26537 2.64013 7.24537 2.58141 7.16137L2.56723 7.70137C2.55913 7.86337 2.78593 7.86137 2.93173 7.81137C2.87706 7.99737 2.76568 8.09937 2.50648 8.07337C2.54619 8.08845 2.58009 8.11551 2.60335 8.15069C2.62661 8.18587 2.63807 8.2274 2.63608 8.26937C2.63608 8.42137 2.51053 8.58937 2.42953 8.63937L2.38903 7.05937V7.05737Z" fill="#FFEC2D"/>
<path d="M2.43016 18.5394C2.43016 18.5394 2.23576 18.7034 2.16893 18.6214C2.06363 18.4914 2.49698 17.8414 2.49698 17.6134C2.49698 17.2374 2.24183 17.1354 1.92998 17.0834C1.71938 17.0474 1.37716 17.0974 1.37716 17.0974C1.44196 17.1834 1.48448 17.2094 1.59181 17.2154C1.47031 17.2754 1.34881 17.4114 1.34881 17.6214C1.34881 17.9434 1.48246 18.0774 1.48246 18.4414C1.48246 18.6394 1.31641 18.8994 1.31641 18.8994C1.61206 18.8694 1.75786 18.5994 1.67483 18.3834C1.69762 18.3789 1.72118 18.3801 1.74342 18.3867C1.76567 18.3933 1.78592 18.4052 1.80241 18.4214C1.82266 18.3614 1.79026 18.2914 1.74368 18.2314C1.78013 18.2114 1.80848 18.2234 1.86518 18.2354C1.86113 18.1754 1.82468 18.1074 1.73153 18.0454C1.99883 18.1134 2.16083 17.9314 2.16083 17.7394C2.16083 17.5934 2.05958 17.4894 1.95833 17.4894C1.92593 17.4894 1.87733 17.5034 1.85101 17.5234C1.83076 17.4834 1.84291 17.4294 1.86113 17.3894C1.78823 17.4094 1.73963 17.4534 1.77406 17.5434C1.71736 17.5474 1.67281 17.5674 1.64243 17.6034C1.67281 17.6434 1.71938 17.6634 1.77406 17.6634C1.73356 17.7474 1.78013 17.7934 1.84696 17.8314C1.84696 17.8314 1.80443 17.6634 1.91176 17.6634C1.96036 17.6634 2.00491 17.6774 2.00491 17.7494C2.00491 17.8114 1.95023 17.8974 1.82266 17.8914C1.69711 17.8854 1.59383 17.8054 1.59383 17.6054C1.59383 17.4214 1.74571 17.3294 1.94416 17.3254C2.12236 17.3174 2.25803 17.4134 2.25803 17.5954C2.25803 17.8394 1.90366 18.3914 1.90366 18.6074C1.90366 18.7694 2.04946 18.8614 2.19526 18.8614C2.38156 18.8614 2.53951 18.6774 2.53951 18.6774L2.43016 18.5414V18.5394Z" fill="#FFEC2D"/>
<path d="M2.47034 14.157C2.47034 13.751 2.10179 13.543 1.81222 13.543C1.42342 13.543 1.21484 13.773 1.21484 14.075C1.21484 14.245 1.24724 14.353 1.32622 14.515L2.22127 16.349C2.25369 16.4261 2.26756 16.5096 2.26177 16.593C2.26177 16.757 2.09977 16.891 1.93169 16.893C1.77779 16.899 1.60769 16.753 1.60769 16.587C1.60769 16.385 1.71502 16.295 1.82437 16.295C1.95802 16.295 2.01067 16.349 2.01067 16.443C2.01067 16.507 1.98029 16.535 1.93372 16.535C1.81829 16.535 1.85272 16.383 1.85272 16.383C1.83748 16.3858 1.82305 16.3918 1.81046 16.4008C1.79787 16.4097 1.78743 16.4213 1.77988 16.4346C1.77234 16.448 1.76788 16.4629 1.76682 16.4781C1.76575 16.4934 1.76812 16.5087 1.77374 16.523C1.7304 16.5326 1.69134 16.5557 1.66237 16.589C1.69274 16.619 1.72919 16.641 1.77374 16.649C1.74742 16.737 1.78387 16.779 1.86082 16.799C1.84697 16.7689 1.84342 16.7352 1.85069 16.703C1.97219 16.739 2.16052 16.683 2.16052 16.475C2.16052 16.267 2.01472 16.093 1.74134 16.135C1.80614 16.105 1.83854 16.043 1.84664 15.973C1.79602 15.993 1.74134 15.993 1.74134 15.993C1.77374 15.939 1.81829 15.893 1.81627 15.781C1.76564 15.805 1.71704 15.847 1.65427 15.821C1.75552 15.621 1.62997 15.349 1.31002 15.285C1.42747 15.421 1.48417 15.565 1.48417 15.711C1.48417 16.181 1.35254 16.259 1.35254 16.587C1.35463 16.6631 1.37499 16.7375 1.41196 16.8043C1.44893 16.8711 1.50145 16.9282 1.56517 16.971V16.965C1.52598 16.9729 1.48894 16.989 1.45648 17.0121C1.42403 17.0352 1.39689 17.0648 1.37684 17.099C1.60243 17.1604 1.84089 17.1583 2.06534 17.093C2.14042 17.0825 2.21215 17.0555 2.27524 17.0139C2.33833 16.9724 2.39116 16.9174 2.42984 16.853C2.47027 16.7619 2.49115 16.6635 2.49115 16.564C2.49115 16.4645 2.47027 16.3661 2.42984 16.275C2.30227 16.015 1.70692 14.763 1.52062 14.371C1.48012 14.287 1.45784 14.199 1.45784 14.103C1.45784 13.863 1.68059 13.779 1.80614 13.779C1.95802 13.779 2.11394 13.893 2.11394 14.035C2.11394 14.125 2.06332 14.181 1.99244 14.181C1.82032 14.181 1.83044 14.037 1.86487 13.945C1.75754 13.993 1.69679 14.077 1.71299 14.165C1.64654 14.176 1.58624 14.21 1.54289 14.261C1.58339 14.313 1.63604 14.353 1.71299 14.355C1.67857 14.493 1.77374 14.551 1.86487 14.583C1.83652 14.483 1.81627 14.365 1.99244 14.365C2.12002 14.365 2.21924 14.345 2.27797 14.261L2.29214 14.801C2.30024 14.963 2.07344 14.961 1.92764 14.911C1.98232 15.097 2.09369 15.199 2.35289 15.173C2.31318 15.1881 2.27929 15.2151 2.25603 15.2503C2.23276 15.2855 2.22131 15.327 2.22329 15.369C2.22329 15.521 2.34884 15.689 2.42984 15.739L2.47034 14.159V14.157Z" fill="#FFEC2D"/>
<path d="M2.47034 12.9417C2.47034 13.3477 2.10179 13.5557 1.81222 13.5557C1.42342 13.5557 1.21484 13.3257 1.21484 13.0237C1.21484 12.8537 1.24724 12.7457 1.32622 12.5837L2.22127 10.7497C2.25369 10.6725 2.26756 10.589 2.26177 10.5057C2.26177 10.3417 2.09977 10.2077 1.93169 10.2057C1.77779 10.1997 1.60769 10.3457 1.60769 10.5117C1.60769 10.7137 1.71502 10.8037 1.82437 10.8037C1.95802 10.8037 2.01067 10.7497 2.01067 10.6557C2.01067 10.5917 1.98029 10.5637 1.93372 10.5637C1.81829 10.5637 1.85272 10.7157 1.85272 10.7157C1.83748 10.7129 1.82305 10.7068 1.81046 10.6979C1.79787 10.6889 1.78743 10.6774 1.77988 10.664C1.77234 10.6506 1.76788 10.6358 1.76682 10.6205C1.76575 10.6052 1.76812 10.5899 1.77374 10.5757C1.7304 10.5661 1.69134 10.5429 1.66237 10.5097C1.69274 10.4797 1.72919 10.4577 1.77374 10.4497C1.74742 10.3617 1.78387 10.3197 1.86082 10.2997C1.84697 10.3297 1.84342 10.3634 1.85069 10.3957C1.97219 10.3597 2.16052 10.4157 2.16052 10.6237C2.16052 10.8317 2.01472 11.0057 1.74134 10.9637C1.80614 10.9937 1.83854 11.0557 1.84664 11.1257C1.79602 11.1057 1.74134 11.1057 1.74134 11.1057C1.77374 11.1597 1.81829 11.2057 1.81627 11.3177C1.76564 11.2937 1.71704 11.2517 1.65427 11.2777C1.75552 11.4777 1.62997 11.7497 1.31002 11.8137C1.42747 11.6777 1.48417 11.5337 1.48417 11.3877C1.48417 10.9177 1.35254 10.8397 1.35254 10.5117C1.35463 10.4356 1.37499 10.3611 1.41196 10.2943C1.44893 10.2276 1.50145 10.1704 1.56517 10.1277V10.1337C1.52598 10.1257 1.48894 10.1097 1.45648 10.0866C1.42403 10.0635 1.39689 10.0338 1.37684 9.99965C1.60243 9.93825 1.84089 9.94032 2.06534 10.0057C2.14042 10.0161 2.21215 10.0432 2.27524 10.0847C2.33833 10.1262 2.39116 10.1812 2.42984 10.2457C2.47027 10.3368 2.49115 10.4352 2.49115 10.5347C2.49115 10.6341 2.47027 10.7325 2.42984 10.8237C2.30227 11.0837 1.70692 12.3357 1.52062 12.7277C1.48012 12.8117 1.45784 12.8997 1.45784 12.9957C1.45784 13.2357 1.68059 13.3197 1.80614 13.3197C1.95802 13.3197 2.11394 13.2057 2.11394 13.0637C2.11394 12.9737 2.06332 12.9177 1.99244 12.9177C1.82032 12.9177 1.83044 13.0617 1.86487 13.1537C1.75754 13.1057 1.69679 13.0217 1.71299 12.9337C1.64654 12.9226 1.58624 12.8886 1.54289 12.8377C1.58339 12.7857 1.63604 12.7457 1.71299 12.7437C1.67857 12.6057 1.77374 12.5477 1.86487 12.5157C1.83652 12.6157 1.81627 12.7337 1.99244 12.7337C2.12002 12.7337 2.21924 12.7537 2.27797 12.8377L2.29214 12.2977C2.30024 12.1357 2.07344 12.1377 1.92764 12.1877C1.98232 12.0017 2.09369 11.8997 2.35289 11.9257C2.31318 11.9106 2.27929 11.8835 2.25603 11.8483C2.23276 11.8132 2.22131 11.7716 2.22329 11.7297C2.22329 11.5777 2.34884 11.4097 2.42984 11.3597L2.47034 12.9397V12.9417Z" fill="#FFEC2D"/>
<path d="M2.42922 18.5394C2.42922 18.5394 2.62362 18.7034 2.69044 18.6214C2.79574 18.4914 2.36239 17.8414 2.36239 17.6134C2.36239 17.2374 2.61754 17.1354 2.92939 17.0834C3.13999 17.0474 3.48222 17.0974 3.48222 17.0974C3.41742 17.1834 3.37489 17.2094 3.26757 17.2154C3.38907 17.2754 3.51057 17.4114 3.51057 17.6214C3.51057 17.9434 3.37692 18.0774 3.37692 18.4414C3.37692 18.6394 3.54297 18.8994 3.54297 18.8994C3.24732 18.8694 3.10152 18.5994 3.18454 18.3834C3.16175 18.3789 3.1382 18.3801 3.11595 18.3867C3.09371 18.3933 3.07345 18.4052 3.05697 18.4214C3.03672 18.3614 3.06912 18.2914 3.11569 18.2314C3.07924 18.2114 3.05089 18.2234 2.99419 18.2354C2.99824 18.1754 3.03469 18.1074 3.12784 18.0454C2.86054 18.1134 2.69854 17.9314 2.69854 17.7394C2.69854 17.5934 2.79979 17.4894 2.90104 17.4894C2.93344 17.4894 2.98204 17.5034 3.00837 17.5234C3.02862 17.4834 3.01647 17.4294 2.99824 17.3894C3.07114 17.4094 3.11974 17.4534 3.08532 17.5434C3.14202 17.5474 3.18657 17.5674 3.21694 17.6034C3.18657 17.6434 3.13999 17.6634 3.08532 17.6634C3.12582 17.7474 3.07924 17.7934 3.01242 17.8314C3.01242 17.8314 3.05494 17.6634 2.94762 17.6634C2.89902 17.6634 2.85447 17.6774 2.85447 17.7494C2.85447 17.8114 2.90914 17.8974 3.03672 17.8914C3.16227 17.8854 3.26554 17.8054 3.26554 17.6054C3.26554 17.4214 3.11367 17.3294 2.91522 17.3254C2.73702 17.3174 2.60134 17.4134 2.60134 17.5954C2.60134 17.8394 2.95572 18.3914 2.95572 18.6074C2.95572 18.7694 2.80992 18.8614 2.66412 18.8614C2.47782 18.8614 2.31987 18.6774 2.31987 18.6774L2.42922 18.5414V18.5394Z" fill="#FFEC2D"/>
<path d="M2.38903 14.157C2.38903 13.751 2.75758 13.543 3.04716 13.543C3.43596 13.543 3.64453 13.773 3.64453 14.075C3.64453 14.245 3.61213 14.353 3.53316 14.515L2.63811 16.349C2.60568 16.4261 2.59182 16.5096 2.59761 16.593C2.59761 16.757 2.75961 16.891 2.92768 16.893C3.08158 16.899 3.25168 16.753 3.25168 16.587C3.25168 16.385 3.14436 16.295 3.03501 16.295C2.90136 16.295 2.84871 16.349 2.84871 16.443C2.84871 16.507 2.87908 16.535 2.92566 16.535C3.04108 16.535 3.00666 16.383 3.00666 16.383C3.0219 16.3858 3.03633 16.3918 3.04892 16.4008C3.06151 16.4097 3.07195 16.4213 3.07949 16.4346C3.08704 16.448 3.0915 16.4629 3.09256 16.4781C3.09362 16.4934 3.09126 16.5087 3.08563 16.523C3.12898 16.5326 3.16803 16.5557 3.19701 16.589C3.16663 16.619 3.13018 16.641 3.08563 16.649C3.11196 16.737 3.07551 16.779 2.99856 16.799C3.0124 16.7689 3.01596 16.7352 3.00868 16.703C2.88718 16.739 2.69886 16.683 2.69886 16.475C2.69886 16.267 2.84466 16.093 3.11803 16.135C3.05323 16.105 3.02083 16.043 3.01273 15.973C3.06336 15.993 3.11803 15.993 3.11803 15.993C3.08563 15.939 3.04108 15.893 3.04311 15.781C3.09373 15.805 3.14233 15.847 3.20511 15.821C3.10386 15.621 3.22941 15.349 3.54936 15.285C3.43191 15.421 3.37521 15.565 3.37521 15.711C3.37521 16.181 3.50683 16.259 3.50683 16.587C3.50475 16.6631 3.48438 16.7375 3.44741 16.8043C3.41044 16.8711 3.35793 16.9282 3.29421 16.971V16.965C3.33339 16.9729 3.37043 16.989 3.40289 17.0121C3.43535 17.0352 3.46249 17.0648 3.48253 17.099C3.25695 17.1604 3.01848 17.1583 2.79403 17.093C2.71896 17.0825 2.64722 17.0555 2.58414 17.0139C2.52105 16.9724 2.46821 16.9174 2.42953 16.853C2.3891 16.7619 2.36823 16.6635 2.36823 16.564C2.36823 16.4645 2.3891 16.3661 2.42953 16.275C2.55711 16.015 3.15246 14.763 3.33876 14.371C3.37926 14.287 3.40153 14.199 3.40153 14.103C3.40153 13.863 3.17878 13.779 3.05323 13.779C2.90136 13.779 2.74543 13.893 2.74543 14.035C2.74543 14.125 2.79606 14.181 2.86693 14.181C3.03906 14.181 3.02893 14.037 2.99451 13.945C3.10183 13.993 3.16258 14.077 3.14638 14.165C3.21283 14.176 3.27313 14.21 3.31648 14.261C3.27598 14.313 3.22333 14.353 3.14638 14.355C3.18081 14.493 3.08563 14.551 2.99451 14.583C3.02286 14.483 3.04311 14.365 2.86693 14.365C2.73936 14.365 2.64013 14.345 2.58141 14.261L2.56723 14.801C2.55913 14.963 2.78593 14.961 2.93173 14.911C2.87706 15.097 2.76568 15.199 2.50648 15.173C2.54619 15.1881 2.58009 15.2151 2.60335 15.2503C2.62661 15.2855 2.63807 15.327 2.63608 15.369C2.63608 15.521 2.51053 15.689 2.42953 15.739L2.38903 14.159V14.157Z" fill="#FFEC2D"/>
<path d="M2.38903 12.9417C2.38903 13.3477 2.75758 13.5557 3.04716 13.5557C3.43596 13.5557 3.64453 13.3257 3.64453 13.0237C3.64453 12.8537 3.61213 12.7457 3.53316 12.5837L2.63811 10.7497C2.60568 10.6725 2.59182 10.589 2.59761 10.5057C2.59761 10.3417 2.75961 10.2077 2.92768 10.2057C3.08158 10.1997 3.25168 10.3457 3.25168 10.5117C3.25168 10.7137 3.14436 10.8037 3.03501 10.8037C2.90136 10.8037 2.84871 10.7497 2.84871 10.6557C2.84871 10.5917 2.87908 10.5637 2.92566 10.5637C3.04108 10.5637 3.00666 10.7157 3.00666 10.7157C3.0219 10.7129 3.03633 10.7068 3.04892 10.6979C3.06151 10.6889 3.07195 10.6774 3.07949 10.664C3.08704 10.6506 3.0915 10.6358 3.09256 10.6205C3.09362 10.6052 3.09126 10.5899 3.08563 10.5757C3.12898 10.5661 3.16803 10.5429 3.19701 10.5097C3.16663 10.4797 3.13018 10.4577 3.08563 10.4497C3.11196 10.3617 3.07551 10.3197 2.99856 10.2997C3.0124 10.3297 3.01596 10.3634 3.00868 10.3957C2.88718 10.3597 2.69886 10.4157 2.69886 10.6237C2.69886 10.8317 2.84466 11.0057 3.11803 10.9637C3.05323 10.9937 3.02083 11.0557 3.01273 11.1257C3.06336 11.1057 3.11803 11.1057 3.11803 11.1057C3.08563 11.1597 3.04108 11.2057 3.04311 11.3177C3.09373 11.2937 3.14233 11.2517 3.20511 11.2777C3.10386 11.4777 3.22941 11.7497 3.54936 11.8137C3.43191 11.6777 3.37521 11.5337 3.37521 11.3877C3.37521 10.9177 3.50683 10.8397 3.50683 10.5117C3.50475 10.4356 3.48438 10.3611 3.44741 10.2943C3.41044 10.2276 3.35793 10.1704 3.29421 10.1277V10.1337C3.33339 10.1257 3.37043 10.1097 3.40289 10.0866C3.43535 10.0635 3.46249 10.0338 3.48253 9.99965C3.25695 9.93825 3.01848 9.94032 2.79403 10.0057C2.71896 10.0161 2.64722 10.0432 2.58414 10.0847C2.52105 10.1262 2.46821 10.1812 2.42953 10.2457C2.3891 10.3368 2.36823 10.4352 2.36823 10.5347C2.36823 10.6341 2.3891 10.7325 2.42953 10.8237C2.55711 11.0837 3.15246 12.3357 3.33876 12.7277C3.37926 12.8117 3.40153 12.8997 3.40153 12.9957C3.40153 13.2357 3.17878 13.3197 3.05323 13.3197C2.90136 13.3197 2.74543 13.2057 2.74543 13.0637C2.74543 12.9737 2.79606 12.9177 2.86693 12.9177C3.03906 12.9177 3.02893 13.0617 2.99451 13.1537C3.10183 13.1057 3.16258 13.0217 3.14638 12.9337C3.21283 12.9226 3.27313 12.8886 3.31648 12.8377C3.27598 12.7857 3.22333 12.7457 3.14638 12.7437C3.18081 12.6057 3.08563 12.5477 2.99451 12.5157C3.02286 12.6157 3.04311 12.7337 2.86693 12.7337C2.73936 12.7337 2.64013 12.7537 2.58141 12.8377L2.56723 12.2977C2.55913 12.1357 2.78593 12.1377 2.93173 12.1877C2.87706 12.0017 2.76568 11.8997 2.50648 11.9257C2.54619 11.9106 2.58009 11.8835 2.60335 11.8483C2.62661 11.8132 2.63807 11.7716 2.63608 11.7297C2.63608 11.5777 2.51053 11.4097 2.42953 11.3597L2.38903 12.9397V12.9417Z" fill="#FFEC2D"/>
</g>
<defs>
<clipPath id="clip0_331_413">
<rect width="27" height="20" fill="white"/>
</clipPath>
</defs>
</svg>
