<svg width="50" height="50" viewBox="0 0 50 50" fill="none" xmlns="http://www.w3.org/2000/svg">
<path d="M5.72852 4.1665C5.72852 3.7521 5.5639 3.35468 5.27087 3.06165C4.97784 2.76862 4.58042 2.604 4.16602 2.604C3.75161 2.604 3.35419 2.76862 3.06116 3.06165C2.76814 3.35468 2.60352 3.7521 2.60352 4.1665V25.1186C2.60352 29.929 2.60352 33.6978 2.99935 36.6394C3.40352 39.6478 4.24935 42.0228 6.11185 43.8873C7.97643 45.7519 10.3514 46.5957 13.3618 46.9998C16.3014 47.3957 20.0702 47.3957 24.8806 47.3957H45.8327C46.2471 47.3957 46.6445 47.2311 46.9375 46.938C47.2306 46.645 47.3952 46.2476 47.3952 45.8332C47.3952 45.4188 47.2306 45.0213 46.9375 44.7283C46.6445 44.4353 46.2471 44.2707 45.8327 44.2707H24.9994C20.0452 44.2707 16.4868 44.2665 13.7785 43.904C11.1139 43.5457 9.50768 42.8623 8.32018 41.6769C7.13477 40.4894 6.45352 38.8853 6.09518 36.2207C5.73268 33.5123 5.72852 29.954 5.72852 24.9998V4.1665Z" fill="#172E28"/>
<path d="M40.8052 15.5539C40.9418 15.3943 41.0449 15.2088 41.1082 15.0085C41.1715 14.8082 41.1938 14.5972 41.1737 14.3881C41.1536 14.179 41.0915 13.9761 40.9912 13.7915C40.8909 13.6069 40.7544 13.4445 40.5898 13.3138C40.4253 13.1832 40.2361 13.0871 40.0336 13.0313C39.8311 12.9755 39.6194 12.961 39.4112 12.9889C39.203 13.0167 39.0025 13.0863 38.8218 13.1934C38.6411 13.3005 38.4838 13.4429 38.3594 13.6122L31.8635 21.7914C31.3531 22.4351 31.0177 22.8539 30.7406 23.158C30.4698 23.4559 30.3448 23.5393 30.2865 23.5705C30.0698 23.686 29.8291 23.7488 29.5837 23.7539C29.3383 23.7589 29.0951 23.7061 28.874 23.5997C28.8156 23.5726 28.6865 23.4955 28.401 23.2101C28.1135 22.9184 27.7594 22.5122 27.2219 21.8914L27.1865 21.8539C26.6927 21.283 26.2698 20.7955 25.8948 20.4205C25.5116 20.0108 25.0605 19.6704 24.5615 19.4143C23.8973 19.0953 23.1673 18.9374 22.4307 18.9533C21.6941 18.9692 20.9716 19.1585 20.3219 19.5059C19.8332 19.7829 19.3962 20.1424 19.0302 20.5684C18.676 20.9601 18.274 21.4643 17.8031 22.058L11.276 30.2789C11.1394 30.4384 11.0363 30.6239 10.973 30.8242C10.9097 31.0245 10.8875 31.2355 10.9076 31.4446C10.9277 31.6538 10.9897 31.8567 11.09 32.0412C11.1904 32.2258 11.3269 32.3883 11.4914 32.5189C11.6559 32.6495 11.8451 32.7456 12.0476 32.8014C12.2501 32.8573 12.4618 32.8717 12.67 32.8438C12.8783 32.816 13.0787 32.7464 13.2595 32.6393C13.4402 32.5322 13.5974 32.3898 13.7219 32.2205L20.2198 24.0414C20.7302 23.3976 21.0656 22.9789 21.3406 22.6747C21.6115 22.3768 21.7365 22.2934 21.7948 22.2622C22.0114 22.1467 22.2521 22.0839 22.4975 22.0788C22.743 22.0738 22.9861 22.1266 23.2073 22.233C23.2677 22.2601 23.3969 22.3372 23.6802 22.6226C23.9698 22.9143 24.3219 23.3205 24.8615 23.9414L24.8948 23.9789C25.3906 24.5497 25.8115 25.0372 26.1865 25.4122C26.5719 25.8018 26.9969 26.1664 27.5198 26.4184C28.1839 26.7374 28.9139 26.8954 29.6505 26.8794C30.3871 26.8635 31.1096 26.6742 31.7594 26.3268C32.2474 26.049 32.6843 25.6896 33.051 25.2643C33.4052 24.8726 33.8073 24.3684 34.2802 23.7747L40.8052 15.5539Z" fill="#172E28"/>
</svg>
