<svg width="27" height="20" viewBox="0 0 27 20" fill="none" xmlns="http://www.w3.org/2000/svg">
<g clip-path="url(#clip0_331_483)">
<path d="M0 13.333H27V19.9997H0V13.333Z" fill="#1EB53A"/>
<path d="M0 0H27V6.66667H0V0Z" fill="#0099B5"/>
<path d="M0 6.40039H27V13.6004H0V6.40039Z" fill="#CE1126"/>
<path d="M0 6.7998H27V13.1998H0V6.7998Z" fill="white"/>
<path d="M5.67023 5.5998C7.01229 5.5998 8.10023 4.52529 8.10023 3.1998C8.10023 1.87432 7.01229 0.799805 5.67023 0.799805C4.32818 0.799805 3.24023 1.87432 3.24023 3.1998C3.24023 4.52529 4.32818 5.5998 5.67023 5.5998Z" fill="white"/>
<path d="M6.48078 5.5998C7.82283 5.5998 8.91078 4.52529 8.91078 3.1998C8.91078 1.87432 7.82283 0.799805 6.48078 0.799805C5.13873 0.799805 4.05078 1.87432 4.05078 3.1998C4.05078 4.52529 5.13873 5.5998 6.48078 5.5998Z" fill="#0099B5"/>
<path d="M11.0172 4.64062L10.8633 5.09662L11.0982 5.17662" fill="white"/>
<path d="M11.018 4.64062L11.1719 5.09662L10.937 5.17662" fill="white"/>
<path d="M11.4698 4.94166L10.9884 5.00932L11.0154 5.2144" fill="white"/>
<path d="M11.4619 4.9558L11.1115 5.25053L10.9386 5.10903" fill="white"/>
<path d="M10.5733 4.9558L10.9237 5.25053L11.0965 5.10903" fill="white"/>
<path d="M10.5634 4.94068L11.0448 5.00835L11.0178 5.21343" fill="white"/>
<path d="M11.3046 5.50917L11.1545 5.05117L10.9187 5.12436" fill="white"/>
<path d="M11.3028 5.50939L10.9065 5.23184L11.0465 5.02961" fill="white"/>
<path d="M10.7349 5.51261L11.1296 5.22541L10.9804 5.02863" fill="white"/>
<path d="M10.7358 5.51083L10.8738 5.05158L11.1165 5.1174" fill="white"/>
<path d="M11.0172 2.7207L10.8633 3.1767L11.0982 3.2567" fill="white"/>
<path d="M11.018 2.7207L11.1719 3.1767L10.937 3.2567" fill="white"/>
<path d="M11.4698 3.02174L10.9884 3.0894L11.0154 3.29448" fill="white"/>
<path d="M11.4619 3.03588L11.1115 3.33061L10.9386 3.18911" fill="white"/>
<path d="M10.5733 3.03588L10.9237 3.33061L11.0965 3.18911" fill="white"/>
<path d="M10.5634 3.02076L11.0448 3.08842L11.0178 3.2935" fill="white"/>
<path d="M11.3046 3.58924L11.1545 3.13125L10.9187 3.20443" fill="white"/>
<path d="M11.3028 3.58947L10.9065 3.31191L11.0465 3.10969" fill="white"/>
<path d="M10.7349 3.59269L11.1296 3.30549L10.9804 3.10871" fill="white"/>
<path d="M10.7358 3.59091L10.8738 3.13166L11.1165 3.19748" fill="white"/>
<path d="M11.0172 0.800781L10.8633 1.25678L11.0982 1.33678" fill="white"/>
<path d="M11.018 0.800781L11.1719 1.25678L10.937 1.33678" fill="white"/>
<path d="M11.4698 1.10182L10.9884 1.16948L11.0154 1.37456" fill="white"/>
<path d="M11.4619 1.11596L11.1115 1.41069L10.9386 1.26919" fill="white"/>
<path d="M10.5733 1.11596L10.9237 1.41069L11.0965 1.26919" fill="white"/>
<path d="M10.5634 1.10084L11.0448 1.1685L11.0178 1.37358" fill="white"/>
<path d="M11.3046 1.66932L11.1545 1.21133L10.9187 1.28451" fill="white"/>
<path d="M11.3028 1.66954L10.9065 1.39199L11.0465 1.18977" fill="white"/>
<path d="M10.7349 1.67277L11.1296 1.38557L10.9804 1.18879" fill="white"/>
<path d="M10.7358 1.67098L10.8738 1.21174L11.1165 1.27756" fill="white"/>
<path d="M12.9605 4.64062L12.8066 5.09662L13.0415 5.17662" fill="white"/>
<path d="M12.9613 4.64062L13.1152 5.09662L12.8803 5.17662" fill="white"/>
<path d="M13.4131 4.94166L12.9318 5.00932L12.9587 5.2144" fill="white"/>
<path d="M13.4052 4.9558L13.0548 5.25053L12.882 5.10903" fill="white"/>
<path d="M12.5166 4.9558L12.867 5.25053L13.0399 5.10903" fill="white"/>
<path d="M12.5068 4.94068L12.9881 5.00835L12.9612 5.21343" fill="white"/>
<path d="M13.248 5.50917L13.0979 5.05117L12.8621 5.12436" fill="white"/>
<path d="M13.2462 5.50939L12.8498 5.23184L12.9898 5.02961" fill="white"/>
<path d="M12.6783 5.51261L13.073 5.22541L12.9238 5.02863" fill="white"/>
<path d="M12.6792 5.51083L12.8171 5.05158L13.0598 5.1174" fill="white"/>
<path d="M12.9605 2.7207L12.8066 3.1767L13.0415 3.2567" fill="white"/>
<path d="M12.9613 2.7207L13.1152 3.1767L12.8803 3.2567" fill="white"/>
<path d="M13.4131 3.02174L12.9318 3.0894L12.9587 3.29448" fill="white"/>
<path d="M13.4052 3.03588L13.0548 3.33061L12.882 3.18911" fill="white"/>
<path d="M12.5166 3.03588L12.867 3.33061L13.0399 3.18911" fill="white"/>
<path d="M12.5068 3.02076L12.9881 3.08842L12.9612 3.2935" fill="white"/>
<path d="M13.248 3.58924L13.0979 3.13125L12.8621 3.20443" fill="white"/>
<path d="M13.2462 3.58947L12.8498 3.31191L12.9898 3.10969" fill="white"/>
<path d="M12.6783 3.59269L13.073 3.30549L12.9238 3.10871" fill="white"/>
<path d="M12.6792 3.59091L12.8171 3.13166L13.0598 3.19748" fill="white"/>
<path d="M12.9605 0.800781L12.8066 1.25678L13.0415 1.33678" fill="white"/>
<path d="M12.9613 0.800781L13.1152 1.25678L12.8803 1.33678" fill="white"/>
<path d="M13.4131 1.10182L12.9318 1.16948L12.9587 1.37456" fill="white"/>
<path d="M13.4052 1.11596L13.0548 1.41069L12.882 1.26919" fill="white"/>
<path d="M12.5166 1.11596L12.867 1.41069L13.0399 1.26919" fill="white"/>
<path d="M12.5068 1.10084L12.9881 1.1685L12.9612 1.37358" fill="white"/>
<path d="M13.248 1.66932L13.0979 1.21133L12.8621 1.28451" fill="white"/>
<path d="M13.2462 1.66954L12.8498 1.39199L12.9898 1.18977" fill="white"/>
<path d="M12.6783 1.67277L13.073 1.38557L12.9238 1.18879" fill="white"/>
<path d="M12.6792 1.67098L12.8171 1.21174L13.0598 1.27756" fill="white"/>
<path d="M14.9039 4.64062L14.75 5.09662L14.9849 5.17662" fill="white"/>
<path d="M14.9047 4.64062L15.0586 5.09662L14.8237 5.17662" fill="white"/>
<path d="M15.3565 4.94166L14.8752 5.00932L14.9021 5.2144" fill="white"/>
<path d="M15.3486 4.9558L14.9982 5.25053L14.8253 5.10903" fill="white"/>
<path d="M14.46 4.9558L14.8104 5.25053L14.9833 5.10903" fill="white"/>
<path d="M14.4502 4.94068L14.9315 5.00835L14.9045 5.21343" fill="white"/>
<path d="M15.1913 5.50917L15.0413 5.05117L14.8054 5.12436" fill="white"/>
<path d="M15.1895 5.50939L14.7932 5.23184L14.9332 5.02961" fill="white"/>
<path d="M14.6216 5.51261L15.0164 5.22541L14.8672 5.02863" fill="white"/>
<path d="M14.6225 5.51083L14.7605 5.05158L15.0032 5.1174" fill="white"/>
<path d="M14.9039 2.7207L14.75 3.1767L14.9849 3.2567" fill="white"/>
<path d="M14.9047 2.7207L15.0586 3.1767L14.8237 3.2567" fill="white"/>
<path d="M15.3565 3.02174L14.8752 3.0894L14.9021 3.29448" fill="white"/>
<path d="M15.3486 3.03588L14.9982 3.33061L14.8253 3.18911" fill="white"/>
<path d="M14.46 3.03588L14.8104 3.33061L14.9833 3.18911" fill="white"/>
<path d="M14.4502 3.02076L14.9315 3.08842L14.9045 3.2935" fill="white"/>
<path d="M15.1913 3.58924L15.0413 3.13125L14.8054 3.20443" fill="white"/>
<path d="M15.1895 3.58947L14.7932 3.31191L14.9332 3.10969" fill="white"/>
<path d="M14.6216 3.59269L15.0164 3.30549L14.8672 3.10871" fill="white"/>
<path d="M14.6225 3.59091L14.7605 3.13166L15.0032 3.19748" fill="white"/>
<path d="M14.9039 0.800781L14.75 1.25678L14.9849 1.33678" fill="white"/>
<path d="M14.9047 0.800781L15.0586 1.25678L14.8237 1.33678" fill="white"/>
<path d="M15.3565 1.10182L14.8752 1.16948L14.9021 1.37456" fill="white"/>
<path d="M15.3486 1.11596L14.9982 1.41069L14.8253 1.26919" fill="white"/>
<path d="M14.46 1.11596L14.8104 1.41069L14.9833 1.26919" fill="white"/>
<path d="M14.4502 1.10084L14.9315 1.1685L14.9045 1.37358" fill="white"/>
<path d="M15.1913 1.66932L15.0413 1.21133L14.8054 1.28451" fill="white"/>
<path d="M15.1895 1.66954L14.7932 1.39199L14.9332 1.18977" fill="white"/>
<path d="M14.6216 1.67277L15.0164 1.38557L14.8672 1.18879" fill="white"/>
<path d="M14.6225 1.67098L14.7605 1.21174L15.0032 1.27756" fill="white"/>
<path d="M7.12851 4.64062L6.97461 5.09662L7.20951 5.17662" fill="white"/>
<path d="M7.1293 4.64062L7.2832 5.09662L7.0483 5.17662" fill="white"/>
<path d="M7.58108 4.94166L7.09977 5.00932L7.12672 5.2144" fill="white"/>
<path d="M7.57321 4.9558L7.22281 5.25053L7.04995 5.10903" fill="white"/>
<path d="M6.6846 4.9558L7.035 5.25053L7.20787 5.10903" fill="white"/>
<path d="M6.67478 4.94068L7.15609 5.00835L7.12914 5.21343" fill="white"/>
<path d="M7.41595 5.50917L7.26587 5.05117L7.03003 5.12436" fill="white"/>
<path d="M7.41412 5.50939L7.01782 5.23184L7.15779 5.02961" fill="white"/>
<path d="M6.84624 5.51261L7.24097 5.22541L7.09177 5.02863" fill="white"/>
<path d="M6.84712 5.51083L6.98511 5.05158L7.22778 5.1174" fill="white"/>
<path d="M9.07187 4.64062L8.91797 5.09662L9.15287 5.17662" fill="white"/>
<path d="M9.07266 4.64062L9.22656 5.09662L8.99166 5.17662" fill="white"/>
<path d="M9.52444 4.94166L9.04312 5.00932L9.07008 5.2144" fill="white"/>
<path d="M9.51657 4.9558L9.16617 5.25053L8.9933 5.10903" fill="white"/>
<path d="M8.62796 4.9558L8.97836 5.25053L9.15123 5.10903" fill="white"/>
<path d="M8.61814 4.94068L9.09945 5.00835L9.0725 5.21343" fill="white"/>
<path d="M9.35931 5.50917L9.20922 5.05117L8.97339 5.12436" fill="white"/>
<path d="M9.35748 5.50939L8.96118 5.23184L9.10115 5.02961" fill="white"/>
<path d="M8.7896 5.51261L9.18433 5.22541L9.03513 5.02863" fill="white"/>
<path d="M8.79048 5.51083L8.92847 5.05158L9.17114 5.1174" fill="white"/>
<path d="M9.07187 2.7207L8.91797 3.1767L9.15287 3.2567" fill="white"/>
<path d="M9.07266 2.7207L9.22656 3.1767L8.99166 3.2567" fill="white"/>
<path d="M9.52444 3.02174L9.04312 3.0894L9.07008 3.29448" fill="white"/>
<path d="M9.51657 3.03588L9.16617 3.33061L8.9933 3.18911" fill="white"/>
<path d="M8.62796 3.03588L8.97836 3.33061L9.15123 3.18911" fill="white"/>
<path d="M8.61814 3.02076L9.09945 3.08842L9.0725 3.2935" fill="white"/>
<path d="M9.35931 3.58924L9.20922 3.13125L8.97339 3.20443" fill="white"/>
<path d="M9.35748 3.58947L8.96118 3.31191L9.10115 3.10969" fill="white"/>
<path d="M8.7896 3.59269L9.18433 3.30549L9.03513 3.10871" fill="white"/>
<path d="M8.79048 3.59091L8.92847 3.13166L9.17114 3.19748" fill="white"/>
</g>
<defs>
<clipPath id="clip0_331_483">
<rect width="27" height="20" fill="white"/>
</clipPath>
</defs>
</svg>
